# xmcd
#
# Track frame offsets:
#	150
#	16260
#	32408
#	44838
#	63230
#	74785
#	101413
#	115688
#	139305
#	156475
#	166310
#	183000
#	195793
#	211485
#
# Disc length: 2992 seconds
#
# Revision: 0
# Processed by: cddbd v1.5.2PL0 Copyright (c) Steve Scherf et al.
# Submitted via: EasyCDDAExtractor 10.0.2.1
#
DISCID=c00bae0e
DTITLE=Various Artist - Eddie Crook CoVol.31991
DYEAR=1991
DGENRE=Gospel
TTITLE0=Wilburns - When Dust Shall Sing
TTITLE1=Perry Sisters - I Don't Want No Rocks
TTITLE2=Isaacs - By His Stripes
TTITLE3=Perrys - Royal Decendant
TTITLE4=Carroll Roberson - I'll Meet You In Paradise
TTITLE5=Cornetts - He Rescued Me
TTITLE6=Carolina - I'm Glad, So Glad
TTITLE7=Hastys - I'm Born Again
TTITLE8=Joyful Sounds - Consolation On Your Knees
TTITLE9=Southern Harmony - I Can Harely Wait
TTITLE10=Haires - He's Coming Back
TTITLE11=Good News - Let God In
TTITLE12=Lumber River - River s Of Joy
TTITLE13=Andersons - Hold On
EXTD=
EXTT0=
EXTT1=
EXTT2=
EXTT3=
EXTT4=
EXTT5=
EXTT6=
EXTT7=
EXTT8=
EXTT9=
EXTT10=
EXTT11=
EXTT12=
EXTT13=
PLAYORDER=
